<svg id="Layer_1" height="512" viewBox="0 0 512 512" width="512" xmlns="http://www.w3.org/2000/svg" data-name="Layer 1"><g fill-rule="evenodd"><path d="m377.123 207.141-.142.028-36.4 10.49a6.334 6.334 0 0 1 -1.213.35l-68.178 19.648v70.405a143.279 143.279 0 0 0 2.865 28.455c.04.162.074.326.1.493a146.536 146.536 0 0 0 15.845 42.29 6.4 6.4 0 0 1 .477.838 146.247 146.247 0 0 0 11 16.519 143.746 143.746 0 0 0 36.6 33.6c.063.038.126.078.188.119a142.472 142.472 0 0 0 38.74 17.162l.112.022a142.7 142.7 0 0 0 75.607-50.9 145.911 145.911 0 0 0 30.287-88.591v-70.4z" fill="#2fa369"/><path d="m415.814 282.206a54.753 54.753 0 1 0 16.035 38.715 54.577 54.577 0 0 0 -16.035-38.715z" fill="#37b877"/><path d="m36.154 90.935h23.265a5.571 5.571 0 0 0 5.538-5.535v-29.363z" fill="#9c9c9c"/><path d="m67.3 299.647a6.382 6.382 0 0 1 0-12.763h191.127v-32.03h-191.127a6.382 6.382 0 0 1 0-12.763h191.127v-13.976l73.4-21.156v-154.989a5.569 5.569 0 0 0 -5.537-5.537h-248.571v38.967a18.336 18.336 0 0 1 -18.3 18.3h-30.394v323.647a5.572 5.572 0 0 0 5.537 5.536h285.173a156.9 156.9 0 0 1 -28.335-28.453 159.562 159.562 0 0 1 -10.341-15.194h-213.759a6.382 6.382 0 0 1 0-12.763h206.88a159.354 159.354 0 0 1 -11.427-32.032h-195.453a6.382 6.382 0 0 1 0-12.763h192.94a155.211 155.211 0 0 1 -1.815-23.616v-8.415z" fill="#fdfdff"/><path d="m66.639 445.646v14.385a5.569 5.569 0 0 0 5.537 5.536h291.731a5.547 5.547 0 0 0 3.689-1.4c.07-.078.142-.154.217-.229a5.517 5.517 0 0 0 1.631-3.9v-1.448a155.308 155.308 0 0 1 -34.358-15.224 18.384 18.384 0 0 1 -1.736.839 18.177 18.177 0 0 1 -7.057 1.448z" fill="#9c9c9c"/><path d="m369.444 196.121v-111.465a5.52 5.52 0 0 0 -1.632-3.907l.013-.013-.013-.012a5.5 5.5 0 0 0 -3.905-1.607h-19.314v124.164z" fill="#9c9c9c"/><path d="m415.8 282.206a54.753 54.753 0 1 0 16.035 38.715 54.577 54.577 0 0 0 -16.035-38.715zm-38.714-28.8a67.513 67.513 0 1 1 -47.737 19.774 67.3 67.3 0 0 1 47.737-19.774zm-29.182 74.2a6.363 6.363 0 1 1 7.378-10.37l16.872 11.974 25.64-29.276a6.359 6.359 0 0 1 9.572 8.375l-29.288 33.441a6.363 6.363 0 0 1 -8.614 1.157l-21.56-15.3zm-311.768-236.671h23.264a5.569 5.569 0 0 0 5.539-5.535v-29.363l-28.8 34.9zm31.148 208.712h191.125v8.415a155.084 155.084 0 0 0 1.816 23.616h-192.941a6.382 6.382 0 0 0 0 12.763h195.451a159.354 159.354 0 0 0 11.427 32.032h-206.878a6.382 6.382 0 0 0 0 12.763h213.762a159.386 159.386 0 0 0 10.342 15.194 156.861 156.861 0 0 0 28.329 28.453h-285.173a5.571 5.571 0 0 1 -5.536-5.536v-323.647h30.392a18.338 18.338 0 0 0 18.3-18.3v-38.967h248.576a5.571 5.571 0 0 1 5.537 5.537v154.989l-73.4 21.156v13.976h-191.129a6.382 6.382 0 0 0 0 12.763h191.125v32.03h-191.125a6.382 6.382 0 0 0 0 12.763zm63.651-134.38h162.6a6.382 6.382 0 0 0 0-12.763h-162.6a6.382 6.382 0 0 0 0 12.763zm-63.651 44.793h226.252a6.381 6.381 0 1 0 0-12.762h-226.252a6.381 6.381 0 0 0 0 12.762zm-.663 235.586v14.385a5.571 5.571 0 0 0 5.537 5.536h291.731a5.547 5.547 0 0 0 3.689-1.4c.07-.078.142-.154.217-.229a5.517 5.517 0 0 0 1.631-3.9v-1.448a155.308 155.308 0 0 1 -34.358-15.224 18.486 18.486 0 0 1 -1.735.839 18.185 18.185 0 0 1 -7.057 1.448zm302.805-249.525v-111.465a5.52 5.52 0 0 0 -1.632-3.907l.013-.013-.013-.012a5.5 5.5 0 0 0 -3.9-1.607h-19.318v124.164zm7.68 11.02 105.887 30.516v70.405a145.916 145.916 0 0 1 -30.286 88.591 142.7 142.7 0 0 1 -75.608 50.9l-.112-.022a142.472 142.472 0 0 1 -38.74-17.162c-.062-.041-.125-.081-.188-.119a143.746 143.746 0 0 1 -36.6-33.6 146.247 146.247 0 0 1 -11-16.519 6.51 6.51 0 0 0 -.476-.838 146.509 146.509 0 0 1 -15.847-42.286c-.028-.167-.061-.331-.1-.493a143.353 143.353 0 0 1 -2.864-28.455v-70.4l68.177-19.648a6.334 6.334 0 0 0 1.213-.35l36.4-10.49.143-.028zm-32.53-140.787h19.313a18.255 18.255 0 0 1 12.916 5.384l.013-.013a18.254 18.254 0 0 1 5.371 12.931v110.73q56.785 16.356 113.566 32.729v79.947a158.742 158.742 0 0 1 -32.978 96.368 155.367 155.367 0 0 1 -80.588 54.907v.694a18.249 18.249 0 0 1 -5.37 12.929c-.139.139-.283.269-.43.392a18.2 18.2 0 0 1 -12.5 4.978h-291.731a18.336 18.336 0 0 1 -18.3-18.3v-14.384h-19.314a18.336 18.336 0 0 1 -18.3-18.3v-330.031-.162a6.361 6.361 0 0 1 1.76-4.239l.009-.009.053-.055 46.912-56.837a6.344 6.344 0 0 1 4.911-2.32v-.023h256.387a18.338 18.338 0 0 1 18.3 18.3z"/></g></svg>