<svg id="Capa_1" enable-background="new 0 0 497 497" height="512" viewBox="0 0 497 497" width="512" xmlns="http://www.w3.org/2000/svg"><g><path d="m205.852 259.862h45v60h-45z" fill="#ffa061" transform="matrix(.707 .707 -.707 .707 271.846 -76.57)"/><path d="m184.639 238.649h45v60h-45z" fill="#ffbb6e" transform="matrix(.707 .707 -.707 .707 250.633 -67.784)"/><path d="m286.688 326.985-31.82-31.82 31.82-95.459 95.46-31.82 31.82 31.82z" fill="#ffbb6e"/><path d="m216.081 99.099h120v180h-120z" fill="#ffd478" transform="matrix(.707 .707 -.707 .707 214.576 -139.833)"/><path d="m196.532 300.468-185.548 185.549c14.645 14.645 38.388 14.645 53.033 0l159.032-159.032z" fill="#995e49"/><path d="m42.803 464.803 159.032-159.032-31.82-31.82-159.031 159.032c-14.645 14.645-14.645 38.388 0 53.033 2.928 2.929 17.175-6.568 31.819-21.213z" fill="#aa6f51"/><path d="m212.442 337.592-21.213-21.213 21.213-21.213 21.213 21.213c5.858 5.858 5.858 15.355 0 21.213-5.858 5.857-15.356 5.857-21.213 0z" fill="#ffbb6e"/><path d="m212.442 316.378c-5.858 5.858-15.355 5.858-21.213 0l-31.82-31.82c-5.858-5.858-5.858-15.355 0-21.213s15.355-5.858 21.213 0l31.82 31.82c5.857 5.858 5.857 15.356 0 21.213z" fill="#ffd478"/><path d="m452 222.738c-12.721 0-23.033-10.312-23.033-23.033l-142.279 142.28c12.721 0 23.033 10.312 23.033 23.033v15l157.279-157.28z" fill="#995e49"/><path d="m403.36 189.099-127.279 127.279c-5.858 5.858-5.858 15.355 0 21.213s15.355 5.858 21.213 0l127.279-127.279c5.858-5.858 5.858-15.355 0-21.213-5.857-5.858-15.355-5.858-21.213 0z" fill="#aa6f51"/><path d="m318.508 401.231c-11.716-11.716-11.716-30.711 0-42.426l127.279-127.279c11.716-11.716 30.711-11.716 42.426 0 11.716 11.716 11.716 30.711 0 42.426l-127.279 127.279c-11.716 11.716-30.711 11.716-42.426 0z" fill="#aa6f51"/><path d="m274.262 45c0 12.721 10.312 23.033 23.033 23.033l-142.28 142.279c0-12.721-10.312-23.033-23.033-23.033h-15l157.28-157.279z" fill="#995e49"/><path d="m307.901 93.64-127.279 127.279c-5.858 5.858-15.355 5.858-21.213 0s-5.858-15.355 0-21.213l127.279-127.28c5.858-5.858 15.355-5.858 21.213 0s5.858 15.356 0 21.214z" fill="#aa6f51"/><path d="m95.769 178.492c11.716 11.716 30.711 11.716 42.426 0l127.28-127.279c11.716-11.716 11.716-30.711 0-42.426-11.716-11.716-30.711-11.716-42.426 0l-127.28 127.279c-11.716 11.716-11.716 30.711 0 42.426z" fill="#aa6f51"/><path d="m452 452h-30l45 45h21.749c4.685 0 8.297-4.262 7.38-8.857-4.114-20.611-22.308-36.143-44.129-36.143z" fill="#995e49"/><path d="m422 452h-152.132c-21.821 0-40.015 15.532-44.128 36.143-.917 4.594 2.695 8.857 7.38 8.857h233.88c0-24.853-20.147-45-45-45z" fill="#aa6f51"/></g></svg>