<svg id="Layer_1" viewBox="0 0 512 512" xmlns="http://www.w3.org/2000/svg" data-name="Layer 1"><g fill-rule="evenodd"><path d="m242.837 501v-341.883l-70.999-30.351-118.786 50.777v321.457z" fill="#909cd1"/><path d="m171.838 501h70.999v-341.883l-70.999-30.351z" fill="#7986bf"/><path d="m458.948 501h-228.144v-441.237l114.072-48.763 114.072 48.763z" fill="#aeaed6"/><path d="m344.876 501h-114.072v-441.237l114.072-48.763z" fill="#d1d1f0"/><path d="m424.43 87.789c0-3.314 2.686-6 6-6s6 2.686 6 6v357.214c0 3.314-2.686 6-6 6s-6-2.686-6-6zm-57.036-24.381c0-3.314 2.686-6 6-6s6 2.686 6 6v381.595c0 3.314-2.686 6-6 6s-6-2.686-6-6zm28.518 12.19c0-3.314 2.686-6 6-6s6 2.686 6 6v369.405c0 3.314-2.686 6-6 6s-6-2.686-6-6z" fill="#f3f3ff"/><path d="m134.752 501h-44.614v-108.989l44.614-4.246z" fill="#f3f3ff"/><path d="m290.259 323.171v-43.854l24.297-3.753v45.278zm0-69.102v-43.819l24.297-5.996v45.242zm0-69.067v-43.854l24.297-8.239v45.278zm0-69.067-.007-41.061 24.303-10.427v42.431l-24.297 9.057zm-43.4 211.365v-41.246l21.561-3.325v42.506zm0-65.03v-41.344l21.569-5.316v42.608zm0-65.06v-41.347l21.569-7.305v42.611l-21.569 6.042zm0-65.142v-38.6l21.575-9.248-.006 39.849-21.569 7.998z" fill="#aeaed6"/><path d="m297.392 322.487v-44.272l24.297-3.753v45.696zm0-69.76v-44.237l24.297-5.996v45.659l-24.297 4.573zm0-69.725v-44.272l24.297-8.239v45.696zm0-69.726-.006-41.463 24.303-10.427v42.833zm-43.4 213.341v-41.662l21.562-3.325v42.923zm0-65.687v-41.762l21.569-5.316v43.026zm0-65.72v-41.762l21.569-7.305v43.026l-21.569 6.042zm0-65.787v-39.015l21.575-9.248-.006 40.264-21.569 7.998z" fill="#f3f3ff"/><path d="m256.532 501v-127.132l9.001-.857v127.989z" fill="#aeaed6"/><path d="m310.147 501h-44.614v-127.989l44.614-4.246z" fill="#f3f3ff"/><path d="m251.937 380.312c-3.288.31-6.205-2.103-6.515-5.391s2.103-6.205 5.391-6.515l67.372-6.413c3.288-.31 6.205 2.103 6.515 5.391s-2.103 6.205-5.391 6.515z" fill="#aeaed6"/><path d="m107.405 335.055v-35.73l20.211-4.171v37.116zm0-56.315v-35.742l20.211-6.387v37.15zm-.006-56.303v-33.457l20.217-8.567v34.829l-20.217 7.196zm-35.493 117.505v-33.333l17.549-3.604v34.534zm0-52.442v-33.323l17.549-5.517v34.525l-17.549 4.316zm0-52.488v-31.092l17.56-7.396-.005 32.281-17.554 6.207z" fill="#7986bf"/><path d="m113.931 334.155v-36.177l20.211-4.171v37.563zm0-57.021v-36.199l20.211-6.387v37.607zm-.006-57.021v-33.9l20.217-8.567v35.271zm-35.493 118.928v-33.78l17.549-3.604v34.982l-17.549 2.403zm0-53.148v-33.78l17.549-5.517v34.982l-17.549 4.316zm0-53.191v-31.55l17.56-7.397-.005 32.739-17.554 6.207z" fill="#f3f3ff"/><path d="m90.138 501h-7.454v-108.279l7.454-.71z" fill="#7986bf"/></g><path d="m11.554 475.989h488.891v25.011h-488.891z" fill="#e6b17c"/><path d="m11.554 488.495h488.891v12.505h-488.891z" fill="#d19458"/><path d="m82.101 398.782c-3.288.31-6.205-2.103-6.515-5.391s2.103-6.205 5.391-6.515l61.812-5.883c3.288-.31 6.205 2.103 6.515 5.391s-2.103 6.205-5.391 6.515z" fill="#3d4a75" fill-rule="evenodd"/></svg>