<svg id="Layer_1" enable-background="new 0 0 1580 1580" height="512" viewBox="0 0 1580 1580" width="512" xmlns="http://www.w3.org/2000/svg"><g><g><g><g id="XMLID_1_"><path d="m1514.93 701.15c21.71 17.07 25.46 48.51 8.38 70.22-9.86 12.54-24.52 19.09-39.33 19.09-10.82 0-21.72-3.5-30.89-10.71l-84.68-66.62-578.39-455.02-578.39 455.02-84.68 66.62c-21.71 17.08-53.15 13.32-70.22-8.38-7.21-9.17-10.71-20.07-10.71-30.89 0-14.81 6.55-29.47 19.09-39.33l724.91-570.29 287.46 226.14 167.04 131.42z" fill="#ff725c"/><path d="m1368.41 713.13v736.01h-1156.78v-736.01l578.39-455.02zm-294.87 449.91c.08-65.52-52.96-118.7-118.47-118.78-65.51-.09-118.69 52.95-118.78 118.46s52.95 118.69 118.47 118.78c65.51.09 118.69-52.95 118.78-118.46zm-329.79-331.76c.09-65.51-52.95-118.69-118.47-118.78-65.51-.09-118.69 52.95-118.78 118.46-.08 65.52 52.96 118.7 118.47 118.78 65.51.09 118.69-52.95 118.78-118.46z" fill="#dfebfa"/><path d="m1244.52 188.5v299.92l-167.04-131.42.04-.05v-168.45z" fill="#e66753"/><g fill="#67b2e6"><path d="m955.07 1044.26c65.51.08 118.55 53.26 118.47 118.78-.09 65.51-53.27 118.55-118.78 118.46-65.52-.09-118.56-53.27-118.47-118.78s53.27-118.55 118.78-118.46z"/><path d="m625.28 712.5c65.52.09 118.56 53.27 118.47 118.78s-53.27 118.55-118.78 118.46c-65.51-.08-118.55-53.26-118.47-118.78.09-65.51 53.27-118.55 118.78-118.46z"/></g></g></g></g><g><g><g><path d="m1368.41 1473.14h-1156.78c-13.25 0-24-10.75-24-24v-736.01c0-13.25 10.75-24 24-24s24 10.75 24 24v712.01h1108.79v-712.01c0-13.25 10.75-24 24-24s24 10.75 24 24v736.01c-.01 13.25-10.75 24-24.01 24z" fill="#333"/></g><g><path d="m1483.87 814.47c-16.51 0-32.43-5.49-45.61-15.85l-648.24-509.97-648.24 509.97c-32.07 25.23-78.69 19.67-103.92-12.41-12.22-15.54-17.66-34.9-15.32-54.53s12.19-37.17 27.73-49.39l724.91-570.29c8.71-6.85 20.97-6.85 29.68 0l724.91 570.29c32.07 25.23 37.64 71.85 12.41 103.92-12.22 15.54-29.76 25.38-49.39 27.73-2.99.35-5.97.53-8.92.53zm-693.85-580.36c5.24 0 10.49 1.71 14.84 5.14l663.08 521.64c5.46 4.29 12.26 6.21 19.16 5.38 6.9-.82 13.06-4.28 17.35-9.74 8.87-11.27 6.91-27.65-4.36-36.52l-710.07-558.61-710.07 558.61c-5.46 4.29-8.92 10.46-9.74 17.36s1.09 13.7 5.38 19.16c8.87 11.27 25.25 13.23 36.52 4.36l663.07-521.64c4.35-3.43 9.6-5.14 14.84-5.14z" fill="#333"/></g></g><g><path d="m1244.52 512.42c-13.25 0-24-10.75-24-24v-275.92h-119v144.45c0 13.25-10.75 24-24 24s-24-10.75-24-24v-168.45c0-13.25 10.75-24 24-24h167c13.25 0 24 10.75 24 24v299.92c0 13.26-10.74 24-24 24z" fill="#333"/></g><g><g><path d="m536.32 1274.03c-6.15 0-12.3-2.35-16.99-7.05-9.36-9.39-9.34-24.58.05-33.94l507.39-506.05c9.39-9.36 24.58-9.34 33.94.04 9.36 9.39 9.34 24.58-.04 33.94l-507.39 506.05c-4.69 4.67-10.83 7.01-16.96 7.01z" fill="#333"/></g><g><g><path d="m767.75 831.31c-.05 38.1-14.93 73.89-41.91 100.79-26.93 26.86-62.69 41.64-100.71 41.64-.07 0-.13 0-.19 0-78.64-.1-142.54-64.17-142.43-142.81.05-38.1 14.93-73.89 41.91-100.79 26.93-26.86 62.69-41.64 100.71-41.64h.19c38.1.05 73.89 14.93 100.79 41.91 26.9 26.97 41.69 62.81 41.64 100.9zm-142.63-94.81c-25.23 0-48.95 9.81-66.82 27.63-17.9 17.85-27.77 41.6-27.8 66.87-.07 52.17 42.32 94.68 94.5 94.75h.13c25.23 0 48.95-9.81 66.82-27.63 17.9-17.85 27.77-41.6 27.8-66.87s-9.78-49.05-27.63-66.94-41.6-27.77-66.87-27.8c-.04-.01-.09-.01-.13-.01z" fill="#333"/></g><g><path d="m1097.54 1163.07c-.05 38.1-14.93 73.89-41.91 100.79-26.93 26.86-62.69 41.64-100.71 41.64-.06 0-.13 0-.19 0-78.64-.1-142.54-64.17-142.43-142.81.05-38.1 14.93-73.89 41.91-100.79 26.93-26.86 62.69-41.64 100.71-41.64h.19c78.63.1 142.53 64.17 142.43 142.81zm-142.63-94.81c-25.23 0-48.95 9.81-66.82 27.63-17.9 17.85-27.77 41.6-27.8 66.87-.07 52.17 42.32 94.68 94.5 94.75h.13c25.23 0 48.95-9.81 66.82-27.63 17.9-17.85 27.77-41.6 27.8-66.87.07-52.17-42.32-94.68-94.5-94.75-.04 0-.09 0-.13 0z" fill="#333"/></g></g></g></g></g></svg>