<svg id="Capa_1" enable-background="new 0 0 497 497" height="512" viewBox="0 0 497 497" width="512" xmlns="http://www.w3.org/2000/svg"><g><path d="m422.991 42.66-65.524 64.11-31.186-17.044-33.3-47.442c32.328-28.914 75.418-39.234 115.431-30.946 2.668.552 3.907 2.602 6.543 3.32 13.608 3.706 18.009 18.029 8.036 28.002z" fill="#7a6d79"/><path d="m424.401 44.075-69.771 69.77-16.256-26.17 64.813-64.813c3.295-3.295 5.02-7.368 5.367-11.491 2.616.537 5.226 1.167 7.814 1.874 13.605 3.706 18.01 20.853 8.033 30.83z" fill="#685e68"/><path d="m490.959 90.784c-2.376-8.769-8.858-15.199-16.862-15.031-4.486.094-9.005 1.816-12.606 5.417l-49.606 49.606c-8.398 8.398-22.015 8.398-30.413 0l-101.509-101.508c-2.34-2.34-6.127-2.364-8.497-.053-39.616 38.676-49.791 96.867-29.973 145.488 2.005 4.919.685 10.562-3.388 13.973l-217.315 181.966c-24.509 20.533-27.313 57.081-8.598 84.93 2.674 3.978 7.201 6.365 10.752 9.917 28.411 28.411 69.966 28.75 93.433.74l176.277-222.924c3.398-4.059 9.028-5.365 13.924-3.351 48.075 19.77 105.4 10.131 144.456-28.926 34.869-34.87 51.954-75.834 39.925-120.244zm-405.522 344.363c-8.878 8.878-23.273 8.878-32.152 0-8.878-8.879-8.878-23.273 0-32.152 8.878-8.878 23.273-8.878 32.152 0 8.879 8.879 8.879 23.274 0 32.152z" fill="#cbc4cc"/><g fill="#b5adb6"><path d="m313.647 247.022c48.076 19.778 105.394 10.133 144.455-28.928 34.867-34.867 46.301-84.315 34.273-128.729-2.376-8.768-10.274-13.781-18.279-13.612 9.405 42.766-2.539 89.286-35.794 122.542-39.061 39.061-96.379 48.706-144.455 28.928-4.893-2.008-10.522-.707-13.923 3.359l-181.931 217.258c-20.662 24.664-57.544 27.351-85.454 8.252 2.595 3.783 5.586 7.41 8.987 10.812 28.412 28.412 72.797 28.744 96.266.736l181.931-217.258c3.402-4.067 9.031-5.368 13.924-3.36z"/><path d="m119.73 376.203c-1.919 0-3.839-.732-5.304-2.196-2.929-2.93-2.929-7.678 0-10.607l125.415-125.415c2.93-2.928 7.678-2.928 10.607 0 2.929 2.93 2.929 7.678 0 10.607l-125.415 125.415c-1.465 1.464-3.385 2.196-5.303 2.196z"/><path d="m360.839 186.904-13.308 13.308c-3.903 3.903-10.232 3.91-14.142 0l-7.092-7.092 2.418-11.724-13.025 1.117-9.765-9.765 1.335-12.807-11.942 2.201-7.099-7.099c-3.903-3.903-3.903-10.239 0-14.142l13.308-13.308c3.91-3.91 10.239-3.903 14.142 0l7.099 7.099-1.485 12.657 12.092-2.05 9.765 9.765-1.442 12.7 12.049-2.093 7.092 7.092c3.91 3.909 3.91 10.23 0 14.141z"/></g><path d="m294.937 146.219h38.82v15h-38.82z" fill="#f3f0f3" transform="matrix(.707 -.707 .707 .707 -16.626 267.3)"/><path d="m315.309 166.591h38.82v15h-38.82z" fill="#f3f0f3" transform="matrix(.707 -.707 .707 .707 -25.064 287.672)"/></g></svg>